<?xml version="1.0" encoding="utf-8"?>
<!-- Generator: Adobe Illustrator 27.0.0, SVG Export Plug-In . SVG Version: 6.00 Build 0)  -->
<svg version="1.1" id="Capa_2" xmlns="http://www.w3.org/2000/svg" xmlns:xlink="http://www.w3.org/1999/xlink" x="0px" y="0px"
	 viewBox="0 0 1080 1080" enable-background="new 0 0 1080 1080" xml:space="preserve">
<g>
	<g>
		<path d="M298.37,533.93l5.07,6.04c-1.99,3.98-4.34,7.02-7.05,9.15c-2.72,2.12-5.55,3.18-8.51,3.18c-4.46,0-8.15-2.13-11.06-6.4
			c-2.91-4.27-4.37-9.67-4.37-16.2c0-8.07,2.1-15.1,6.31-21.09c4.21-5.99,9.19-8.98,14.94-8.98c3.85,0,6.76,1.91,8.72,5.74
			l0.71-4.93h5.07l-2.39,16.67h-5.08c-0.56-5.62-2.94-8.43-7.12-8.43c-3.38,0-6.36,2.17-8.92,6.5c-2.56,4.33-3.85,9.34-3.85,15.04
			c0,3.68,0.69,6.7,2.08,9.06c1.39,2.35,3.16,3.53,5.31,3.53C291.92,542.8,295.29,539.84,298.37,533.93z"/>
		<path d="M320.26,552.29c-3.99,0-7.3-2.01-9.93-6.03s-3.95-9.08-3.95-15.19c0-8.34,1.95-15.68,5.85-22.03
			c3.9-6.35,8.68-9.53,14.34-9.53c4.37,0,7.85,2.05,10.43,6.16c2.59,4.11,3.88,9.15,3.88,15.14c0,8.75-2,16.19-6,22.31
			C330.88,549.23,326.01,552.29,320.26,552.29z M332.48,519.47c0-3.21-0.63-5.83-1.88-7.86c-1.25-2.03-2.86-3.05-4.84-3.05
			c-3.23,0-5.87,2.49-7.92,7.46c-2.05,4.97-3.07,10.27-3.07,15.9c0,3.53,0.6,6.29,1.79,8.3c1.19,2.01,2.83,3.01,4.93,3.01
			c3.41,0,6.1-2.58,8.06-7.75C331.5,530.32,332.48,524.98,332.48,519.47z"/>
		<path d="M339.19,551.63l1.18-8.02h2.98l4.98-35.15h-2.98l1.16-8.02h11.78l7.24,35.48l3.86-27.46h-2.97l1.16-8.02h11.4l-1.16,8.02
			h-2.98l-6.18,43.62h-6.94l-8.27-41.19l-4.62,32.72h3.32l-1.16,8.02H339.19z"/>
		<path d="M374.07,551.63l2.28-15.9h5.26c-0.12,0.74-0.18,1.45-0.18,2.13c0,1.64,0.35,2.99,1.05,4.05c0.7,1.06,1.53,1.58,2.5,1.58
			c1.17,0,2.14-0.62,2.92-1.86c0.78-1.24,1.17-2.78,1.17-4.62c0-1.23-0.23-2.52-0.69-3.89c-0.46-1.36-1.71-3.52-3.75-6.48
			c-2.04-2.95-3.37-5.4-3.97-7.34c-0.61-1.94-0.91-3.83-0.91-5.67c0-3.61,0.77-6.77,2.3-9.5c1.53-2.72,3.7-4.09,6.51-4.09
			c2.64,0,4.71,1.34,6.21,4.01l0.5-3.64h5.05l-1.96,13.51h-5.07c0.05-0.34,0.07-0.69,0.07-1.03c0-1.3-0.33-2.37-0.99-3.22
			c-0.66-0.85-1.51-1.27-2.55-1.27c-0.92,0-1.66,0.34-2.2,1.03c-0.54,0.69-0.82,1.56-0.82,2.62c0,0.86,0.18,1.79,0.55,2.78
			c0.37,1,1.58,2.94,3.64,5.83c2.06,2.89,3.45,5.56,4.17,8c0.72,2.44,1.08,4.87,1.08,7.27c0,4.83-0.96,8.81-2.88,11.93
			c-1.92,3.12-4.34,4.67-7.27,4.67c-2.46,0-4.52-1.58-6.19-4.75l-0.57,3.83H374.07z"/>
		<path d="M395.62,551.63l1.18-8.02h2.98l5.03-35.15h-2.98l1.12-8.02h25.87l-2.34,16.31h-5.92l1.16-8.28h-8.94l-1.86,13.1h7.46
			l-1.16,8.02h-7.43l-1.99,14.02h9.12l1.18-8.02h5.71l-2.32,16.05H395.62z"/>
		<path d="M423.06,551.63l1.18-8.02h3.12l5.03-35.15h-3.12l1.12-8.02h16.45c2.88,0,5.13,1.36,6.75,4.07
			c1.62,2.71,2.42,5.98,2.42,9.81c0,3.31-0.63,6.32-1.88,9.02c-1.25,2.7-3.05,4.29-5.39,4.79l2.71,15.5h3.16l-1.16,8.02h-8.07
			l-3.49-22.75h-4.42l-2.11,14.72h3.02l-1.21,8.02H423.06z M438.42,522.29h3.41c3.99,0,5.99-2.68,5.99-8.04
			c0-1.81-0.34-3.23-1.02-4.26c-0.68-1.03-1.6-1.54-2.75-1.54h-3.64L438.42,522.29z"/>
		<path d="M462.72,552l-3-43.55h-3.23l1.18-8.02h13.47l-1.18,8.02h-2.8l1.56,27.72l9.93-27.72h-2.8l1.18-8.02h12.11l-1.12,8.02
			h-2.98L469.28,552H462.72z"/>
		<path d="M477.56,551.63l1.16-8.02h3.05l11.96-35.15h-3.07l1.11-8.02h18.31l-1.11,8.02h-2.69l0.93,35.15h3.25l-1.16,8.02h-13.2
			l1.18-8.02h2.94l0-8.58h-9.61l-2.67,8.58h2.94l-1.16,8.02H477.56z M500.02,527.74l-0.36-19.73h-0.32l-6.36,19.73H500.02z"/>
		<path d="M513.35,551.63l1.16-8.02h3.64l4.98-35.15h-4.98l-1.68,11.96h-5.07l2.84-19.99h28.15l-2.84,19.99h-5.07l1.71-11.96h-4.98
			l-4.98,35.15h3.64l-1.16,8.02H513.35z"/>
		<path d="M553.42,552.29c-3.99,0-7.3-2.01-9.93-6.03c-2.63-4.02-3.95-9.08-3.95-15.19c0-8.34,1.95-15.68,5.85-22.03
			c3.9-6.35,8.68-9.53,14.34-9.53c4.37,0,7.85,2.05,10.43,6.16c2.59,4.11,3.88,9.15,3.88,15.14c0,8.75-2,16.19-6,22.31
			C564.04,549.23,559.17,552.29,553.42,552.29z M565.64,519.47c0-3.21-0.63-5.83-1.88-7.86c-1.25-2.03-2.86-3.05-4.84-3.05
			c-3.23,0-5.87,2.49-7.92,7.46c-2.05,4.97-3.07,10.27-3.07,15.9c0,3.53,0.59,6.29,1.79,8.3c1.19,2.01,2.83,3.01,4.93,3.01
			c3.41,0,6.1-2.58,8.06-7.75C564.66,530.32,565.64,524.98,565.64,519.47z"/>
		<path d="M572.26,551.63l1.18-8.02h3.12l5.03-35.15h-3.12l1.12-8.02h16.45c2.88,0,5.13,1.36,6.75,4.07
			c1.62,2.71,2.42,5.98,2.42,9.81c0,3.31-0.63,6.32-1.88,9.02c-1.25,2.7-3.05,4.29-5.38,4.79l2.71,15.5h3.16l-1.16,8.02h-8.07
			l-3.49-22.75h-4.42l-2.11,14.72h3.03l-1.21,8.02H572.26z M587.62,522.29h3.4c4,0,5.99-2.68,5.99-8.04c0-1.81-0.34-3.23-1.03-4.26
			c-0.68-1.03-1.6-1.54-2.75-1.54h-3.64L587.62,522.29z"/>
		<path d="M601.93,551.63l1.11-8.02h4.01l5.03-35.15h-4.48l1.14-8.02h15.98l-1.11,8.02h-3.46l-5.03,35.15h4.57l-1.16,8.02H601.93z"
			/>
		<path d="M636.5,552.29c-3.99,0-7.3-2.01-9.93-6.03s-3.95-9.08-3.95-15.19c0-8.34,1.95-15.68,5.85-22.03
			c3.9-6.35,8.68-9.53,14.34-9.53c4.37,0,7.85,2.05,10.43,6.16c2.59,4.11,3.88,9.15,3.88,15.14c0,8.75-2,16.19-6,22.31
			C647.12,549.23,642.25,552.29,636.5,552.29z M648.72,519.47c0-3.21-0.63-5.83-1.88-7.86c-1.25-2.03-2.86-3.05-4.84-3.05
			c-3.23,0-5.87,2.49-7.92,7.46c-2.05,4.97-3.07,10.27-3.07,15.9c0,3.53,0.59,6.29,1.79,8.3s2.83,3.01,4.93,3.01
			c3.41,0,6.1-2.58,8.06-7.75S648.72,524.98,648.72,519.47z"/>
		<path d="M664.16,551.63l1.16-8.02h3.82l4.98-35.15h-3.82l1.16-8.02h13.06c4.96,0,8.74,2.04,11.33,6.11
			c2.59,4.07,3.89,9.56,3.89,16.45c0,8.37-1.61,15.23-4.82,20.59c-3.22,5.36-7.42,8.04-12.61,8.04H664.16z M677.15,543.61h4.8
			c3.03,0,5.39-2.42,7.06-7.27c1.67-4.85,2.5-10.1,2.5-15.76c0-3.6-0.67-6.52-2.03-8.76s-3.16-3.36-5.44-3.36h-1.91L677.15,543.61z"
			/>
		<path d="M698.25,551.63l1.18-8.02h2.98l5.03-35.15h-2.98l1.12-8.02h25.88l-2.34,16.31h-5.92l1.16-8.28h-8.94l-1.86,13.1H721
			l-1.16,8.02h-7.43l-1.99,14.02h9.12l1.18-8.02h5.71l-2.32,16.05H698.25z"/>
		<path d="M735.15,551.63l1.16-8.02h3.14l5.03-35.15h-3.16l1.16-8.02h14.02l2.71,30.77l11.65-30.77h14.54l-1.16,8.02h-2.44
			l-4.98,35.15h3.28l-1.18,8.02h-13.79l1.12-8.02h2.98l5.05-35.15h-0.62l-16.31,43.18h-3.4l-3.64-43.18h-0.8l-5.03,35.15h2.99
			l-1.12,8.02H735.15z"/>
		<path d="M787.76,508.45l1.11-8.02h13.75l-1.11,8.02h-3.25l-3.69,25.47c-0.17,1.18-0.25,2.26-0.25,3.24c0,4.22,1.45,6.33,4.35,6.33
			c1.62,0,2.95-0.94,3.98-2.82s1.85-4.94,2.46-9.18l3.3-23.05h-2.98l1.12-8.02h10.88l-1.14,8.02h-2.41l-3.69,25.77
			c-0.88,6.13-2.39,10.71-4.52,13.73c-2.13,3.02-5.02,4.53-8.66,4.53c-2.82,0-5.3-1.1-7.43-3.31c-2.13-2.21-3.2-5.84-3.2-10.9
			c0-1.94,0.17-4.1,0.5-6.47l3.32-23.34H787.76z M803.44,496.6h-3.69l4.21-13.29h8.1L803.44,496.6z"/>
		<path d="M811.79,551.63l2.28-15.9h5.26c-0.12,0.74-0.18,1.45-0.18,2.13c0,1.64,0.35,2.99,1.05,4.05c0.7,1.06,1.53,1.58,2.5,1.58
			c1.17,0,2.14-0.62,2.92-1.86c0.78-1.24,1.17-2.78,1.17-4.62c0-1.23-0.23-2.52-0.69-3.89s-1.71-3.52-3.75-6.48
			c-2.04-2.95-3.37-5.4-3.97-7.34c-0.61-1.94-0.91-3.83-0.91-5.67c0-3.61,0.77-6.77,2.3-9.5c1.53-2.72,3.7-4.09,6.51-4.09
			c2.64,0,4.71,1.34,6.21,4.01l0.5-3.64h5.05l-1.96,13.51H831c0.04-0.34,0.07-0.69,0.07-1.03c0-1.3-0.33-2.37-0.99-3.22
			c-0.66-0.85-1.51-1.27-2.55-1.27c-0.92,0-1.66,0.34-2.2,1.03s-0.82,1.56-0.82,2.62c0,0.86,0.19,1.79,0.55,2.78
			c0.37,1,1.58,2.94,3.64,5.83c2.06,2.89,3.45,5.56,4.17,8c0.72,2.44,1.08,4.87,1.08,7.27c0,4.83-0.96,8.81-2.88,11.93
			c-1.92,3.12-4.34,4.67-7.27,4.67c-2.46,0-4.52-1.58-6.19-4.75l-0.57,3.83H811.79z"/>
		<path d="M832.52,551.63l1.11-8.02h4.01l5.03-35.15h-4.48l1.14-8.02h15.98l-1.11,8.02h-3.46l-5.03,35.15h4.57l-1.16,8.02H832.52z"
			/>
		<path d="M879.03,533.93l5.08,6.04c-1.99,3.98-4.34,7.02-7.05,9.15c-2.72,2.12-5.55,3.18-8.51,3.18c-4.46,0-8.15-2.13-11.06-6.4
			c-2.91-4.27-4.37-9.67-4.37-16.2c0-8.07,2.1-15.1,6.32-21.09c4.21-5.99,9.19-8.98,14.94-8.98c3.85,0,6.76,1.91,8.72,5.74
			l0.71-4.93h5.08l-2.39,16.67h-5.07c-0.56-5.62-2.94-8.43-7.12-8.43c-3.38,0-6.36,2.17-8.92,6.5c-2.56,4.33-3.85,9.34-3.85,15.04
			c0,3.68,0.69,6.7,2.08,9.06c1.39,2.35,3.16,3.53,5.31,3.53C872.58,542.8,875.95,539.84,879.03,533.93z"/>
		<path d="M881.39,551.63l1.16-8.02h3.05l11.96-35.15h-3.07l1.11-8.02h18.31l-1.11,8.02h-2.69l0.93,35.15h3.25l-1.16,8.02h-13.2
			l1.18-8.02h2.94l0-8.58h-9.61l-2.67,8.58h2.94l-1.16,8.02H881.39z M903.85,527.74l-0.36-19.73h-0.32l-6.36,19.73H903.85z"/>
	</g>
	<g>
		<path d="M347.71,633.9l5.11,6.89c-2,4.54-4.37,8.02-7.1,10.45c-2.73,2.42-5.59,3.64-8.57,3.64c-4.49,0-8.2-2.44-11.13-7.32
			s-4.4-11.04-4.4-18.5c0-9.22,2.12-17.25,6.36-24.09c4.24-6.84,9.25-10.26,15.04-10.26c3.88,0,6.8,2.19,8.77,6.56l0.71-5.63h5.11
			l-2.41,19.04h-5.11c-0.57-6.42-2.96-9.63-7.17-9.63c-3.41,0-6.4,2.47-8.98,7.42c-2.58,4.95-3.87,10.67-3.87,17.17
			c0,4.2,0.7,7.65,2.1,10.34s3.18,4.04,5.35,4.04C341.21,644.04,344.61,640.66,347.71,633.9z"/>
		<path d="M350.09,654.12l1.17-9.17h3.07l12.04-40.15h-3.09l1.12-9.16h18.43l-1.12,9.16h-2.71l0.93,40.15h3.27l-1.17,9.17h-13.29
			l1.19-9.17h2.96l0-9.79h-9.67l-2.68,9.79h2.96l-1.17,9.17H350.09z M372.69,626.84l-0.36-22.53h-0.32l-6.4,22.53H372.69z"/>
		<path d="M380.39,654.12l1.19-9.17h3.14l5.06-40.15h-3.14l1.12-9.16h16.56c2.9,0,5.17,1.55,6.79,4.65s2.44,6.83,2.44,11.2
			c0,3.78-0.63,7.22-1.89,10.3c-1.26,3.08-3.07,4.9-5.42,5.46l2.73,17.7h3.18l-1.17,9.17h-8.13l-3.51-25.98h-4.45l-2.12,16.82h3.05
			l-1.21,9.17H380.39z M395.85,620.62h3.43c4.02,0,6.03-3.06,6.03-9.18c0-2.07-0.34-3.69-1.03-4.86c-0.69-1.17-1.61-1.76-2.77-1.76
			h-3.66L395.85,620.62z"/>
		<path d="M411.13,654.12l1.15-9.17h3l5.06-40.15h-3.8l1.17-9.16h14.87l-1.17,9.16h-3l-5.02,40.15h8.91l2.25-17.95h6.12l-3.44,27.12
			H411.13z"/>
		<path d="M454.81,654.88c-4.02,0-7.35-2.3-10-6.89c-2.65-4.59-3.97-10.38-3.97-17.35c0-9.52,1.96-17.91,5.89-25.17
			s8.74-10.88,14.43-10.88c4.4,0,7.9,2.35,10.5,7.04c2.6,4.69,3.91,10.45,3.91,17.29c0,10-2.01,18.49-6.04,25.48
			C465.5,651.39,460.6,654.88,454.81,654.88z M467.11,617.4c0-3.67-0.63-6.66-1.89-8.98c-1.26-2.32-2.88-3.48-4.87-3.48
			c-3.25,0-5.91,2.84-7.97,8.52c-2.06,5.68-3.09,11.73-3.09,18.17c0,4.03,0.6,7.19,1.8,9.48c1.2,2.29,2.85,3.44,4.96,3.44
			c3.44,0,6.14-2.95,8.11-8.85C466.13,629.79,467.11,623.69,467.11,617.4z"/>
		<path d="M473.93,654.12l2.29-18.16h5.29c-0.12,0.84-0.18,1.65-0.18,2.44c0,1.88,0.35,3.42,1.05,4.62c0.7,1.21,1.54,1.81,2.52,1.81
			c1.18,0,2.16-0.71,2.94-2.12c0.79-1.42,1.18-3.18,1.18-5.28c0-1.4-0.23-2.88-0.7-4.44c-0.46-1.56-1.72-4.02-3.78-7.4
			c-2.06-3.37-3.39-6.17-4-8.38c-0.61-2.21-0.92-4.37-0.92-6.47c0-4.12,0.77-7.74,2.31-10.85c1.54-3.11,3.73-4.67,6.55-4.67
			c2.66,0,4.74,1.53,6.25,4.58l0.5-4.16h5.09l-1.97,15.43h-5.11c0.05-0.39,0.07-0.78,0.07-1.18c0-1.49-0.33-2.71-0.99-3.68
			c-0.66-0.97-1.52-1.45-2.57-1.45c-0.93,0-1.67,0.39-2.21,1.18c-0.55,0.79-0.82,1.78-0.82,2.99c0,0.98,0.19,2.04,0.56,3.18
			c0.37,1.14,1.59,3.36,3.67,6.66c2.07,3.3,3.47,6.35,4.2,9.14c0.73,2.79,1.09,5.56,1.09,8.3c0,5.52-0.97,10.06-2.9,13.62
			c-1.93,3.56-4.37,5.34-7.32,5.34c-2.47,0-4.55-1.81-6.23-5.42l-0.57,4.37H473.93z"/>
		<path d="M503.09,654.12l1.17-9.17h3.07l12.04-40.15h-3.09l1.12-9.16h18.43l-1.12,9.16h-2.71l0.93,40.15h3.27l-1.17,9.17h-13.29
			l1.19-9.17h2.96l0-9.79h-9.67l-2.68,9.79h2.96l-1.17,9.17H503.09z M525.69,626.84l-0.36-22.53h-0.32l-6.4,22.53H525.69z"/>
		<path d="M532.22,654.12l1.17-9.17h4.28l5.02-40.15H538l1.17-9.16h27.35l-2.38,18.96h-5.91l1.21-9.8h-8.68l-1.87,14.97h6.66
			l-1.17,9.17h-6.63l-2,16.02h4.35l-1.17,9.17H532.22z"/>
		<path d="M555.13,654.12l1.17-9.17h3.07l12.04-40.15h-3.09l1.12-9.16h18.43l-1.12,9.16h-2.71l0.93,40.15h3.28l-1.17,9.17H573.8
			l1.19-9.17h2.96l0-9.79h-9.67l-2.68,9.79h2.96l-1.17,9.17H555.13z M577.73,626.84l-0.36-22.53h-0.32l-6.4,22.53H577.73z"/>
		<path d="M585.52,654.12l1.19-9.17h3l5.02-40.15h-3l1.17-9.16h11.86l7.29,40.53l3.88-31.36h-2.99l1.17-9.16h11.48l-1.17,9.16h-3
			l-6.22,49.82h-6.99l-8.33-47.04l-4.65,37.37h3.34l-1.17,9.17H585.52z"/>
		<path d="M617.43,654.12l1.17-9.17h3.07l12.04-40.15h-3.09l1.12-9.16h18.43l-1.12,9.16h-2.71l0.93,40.15h3.27l-1.17,9.17H636.1
			l1.19-9.17h2.96l0-9.79h-9.67l-2.68,9.79h2.96l-1.17,9.17H617.43z M640.03,626.84l-0.36-22.53h-0.32l-6.4,22.53H640.03z"/>
		<path d="M647,654.12l1.17-9.17h3.85l5.02-40.15h-3.85l1.17-9.16h13.15c4.99,0,8.8,2.33,11.41,6.98s3.92,10.92,3.92,18.79
			c0,9.56-1.62,17.4-4.86,23.52c-3.24,6.12-7.47,9.19-12.69,9.19H647z M660.08,644.96h4.83c3.05,0,5.42-2.77,7.1-8.31
			c1.68-5.54,2.52-11.54,2.52-18c0-4.11-0.68-7.45-2.04-10.01c-1.36-2.56-3.18-3.84-5.48-3.84h-1.92L660.08,644.96z"/>
		<path d="M698.81,654.88c-4.02,0-7.35-2.3-10-6.89c-2.65-4.59-3.97-10.38-3.97-17.35c0-9.52,1.96-17.91,5.89-25.17
			s8.74-10.88,14.43-10.88c4.4,0,7.9,2.35,10.5,7.04c2.6,4.69,3.91,10.45,3.91,17.29c0,10-2.01,18.49-6.04,25.48
			C709.5,651.39,704.6,654.88,698.81,654.88z M711.11,617.4c0-3.67-0.63-6.66-1.89-8.98c-1.26-2.32-2.88-3.48-4.87-3.48
			c-3.25,0-5.91,2.84-7.97,8.52c-2.06,5.68-3.09,11.73-3.09,18.17c0,4.03,0.6,7.19,1.8,9.48c1.2,2.29,2.85,3.44,4.96,3.44
			c3.44,0,6.14-2.95,8.11-8.85C710.13,629.79,711.11,623.69,711.11,617.4z"/>
		<path d="M717.77,654.12l1.19-9.17h3.14l5.06-40.15h-3.14l1.12-9.16h16.56c2.9,0,5.17,1.55,6.79,4.65c1.63,3.1,2.44,6.83,2.44,11.2
			c0,3.78-0.63,7.22-1.89,10.3s-3.07,4.9-5.42,5.46l2.73,17.7h3.18l-1.17,9.17h-8.13l-3.51-25.98h-4.45l-2.12,16.82h3.05l-1.21,9.17
			H717.77z M733.24,620.62h3.43c4.02,0,6.03-3.06,6.03-9.18c0-2.07-0.34-3.69-1.03-4.86c-0.69-1.17-1.61-1.76-2.77-1.76h-3.67
			L733.24,620.62z"/>
		<path d="M758.04,654.12l1.19-9.17h3.14l5.06-40.15h-3.14l1.12-9.16h16.56c2.9,0,5.17,1.55,6.79,4.65c1.63,3.1,2.44,6.83,2.44,11.2
			c0,3.78-0.63,7.22-1.89,10.3s-3.07,4.9-5.42,5.46l2.73,17.7h3.18l-1.17,9.17h-8.13l-3.51-25.98h-4.45l-2.12,16.82h3.05l-1.21,9.17
			H758.04z M773.5,620.62h3.43c4.02,0,6.03-3.06,6.03-9.18c0-2.07-0.34-3.69-1.03-4.86c-0.69-1.17-1.61-1.76-2.77-1.76h-3.67
			L773.5,620.62z"/>
		<path d="M788.73,654.12l1.19-9.17h3l5.06-40.15h-3l1.12-9.16h26.05l-2.36,18.62h-5.96l1.17-9.46h-9l-1.87,14.97h7.5l-1.17,9.17
			h-7.48l-2,16.02h9.18l1.19-9.17h5.75l-2.34,18.33H788.73z"/>
		<path d="M814.25,654.12l1.17-9.17h3.07l12.04-40.15h-3.09l1.12-9.16h18.43l-1.12,9.16h-2.71l0.93,40.15h3.27l-1.17,9.17h-13.29
			l1.19-9.17h2.96l0-9.79h-9.67l-2.68,9.79h2.96l-1.17,9.17H814.25z M836.85,626.84l-0.36-22.53h-0.32l-6.4,22.53H836.85z"/>
		<path d="M844.64,654.12l1.15-9.17h3l5.06-40.15h-3.8l1.17-9.16h14.87l-1.17,9.16h-3l-5.02,40.15h8.91l2.25-17.95h6.12l-3.44,27.12
			H844.64z"/>
	</g>
	<path d="M299.11,628.74L299.11,628.74c-1.13-0.08-1.98-1.05-1.91-2.18l1.99-29.62c0.08-1.13,1.05-1.98,2.18-1.91l0,0
		c1.13,0.08,1.98,1.05,1.91,2.18l-1.99,29.62C301.22,627.96,300.24,628.81,299.11,628.74z"/>
	<path d="M308.31,629.35L308.31,629.35c-1.13-0.08-1.98-1.05-1.91-2.18l1.99-29.62c0.08-1.13,1.05-1.98,2.18-1.91h0
		c1.13,0.08,1.98,1.05,1.91,2.18l-1.99,29.62C310.41,628.58,309.44,629.43,308.31,629.35z"/>
	<path d="M882.2,626.99L882.2,626.99c-1.12,0.12-2.13-0.69-2.26-1.81l-3.22-29.51c-0.12-1.12,0.69-2.13,1.81-2.26l0,0
		c1.12-0.12,2.13,0.69,2.26,1.81l3.22,29.51C884.14,625.86,883.33,626.87,882.2,626.99z"/>
	<path d="M892.32,625.89L892.32,625.89c-1.12,0.12-2.13-0.69-2.26-1.81l-3.22-29.51c-0.12-1.12,0.69-2.13,1.81-2.26l0,0
		c1.12-0.12,2.13,0.69,2.26,1.81l3.22,29.51C894.25,624.76,893.44,625.77,892.32,625.89z"/>
	<polyline fill="none" stroke="#000000" stroke-width="2.0048" stroke-miterlimit="10" points="170.86,519.16 165.74,671.7 
		249.69,588.26 254.3,438.8 	"/>
	
		<line fill="none" stroke="#000000" stroke-width="2.0048" stroke-miterlimit="10" x1="243.38" y1="464.9" x2="913.57" y2="464.73"/>
	
		<ellipse transform="matrix(0.4607 -0.8875 0.8875 0.4607 -341.0045 437.9773)" fill="#F8FC03" stroke="#000000" stroke-width="2.0048" stroke-miterlimit="10" cx="189.92" cy="499.61" rx="30.3" ry="15.44"/>
	
		<ellipse transform="matrix(0.4014 -0.9159 0.9159 0.4014 -287.2695 489.7076)" fill="#0341F7" stroke="#000000" stroke-width="2.0048" stroke-miterlimit="10" cx="231.02" cy="464.63" rx="30.3" ry="14.08"/>
	
		<ellipse transform="matrix(0.4014 -0.9159 0.9159 0.4014 -228.9547 505.1891)" fill="#F80502" stroke="#000000" stroke-width="2.0048" stroke-miterlimit="10" cx="272.02" cy="427.76" rx="30.3" ry="14.08"/>
	
		<line fill="none" stroke="#000000" stroke-width="2.0048" stroke-miterlimit="10" x1="214.03" y1="472.07" x2="207.76" y2="629.94"/>
	<polygon points="250.05,587.64 165.74,672.08 166.28,656.32 249.75,573.91 	"/>
</g>
<g>
</g>
<g>
</g>
<g>
</g>
<g>
</g>
<g>
</g>
<g>
</g>
<g>
</g>
<g>
</g>
<g>
</g>
<g>
</g>
<g>
</g>
</svg>
